<svg data-v-fbff51d6="" xmlns="http://www.w3.org/2000/svg" aria-hidden="true" aria-labelledby="icon-ic-user-circle-24" focusable="false" viewBox="0 0 24 24" class="prevent-select h-icon--no-custom-width h-icon"><!----><g data-v-fbff51d6=""><path data-v-fbff51d6="" fill-rule="evenodd" clip-rule="evenodd" d="M18.713 19.412C16.9383 21.0202 14.5836 22 12 22C9.41642 22 7.06167 21.0202 5.28704 19.412L5.29656 19.393C6.5661 16.8539 9.16122 15.25 12 15.25C14.8388 15.25 17.4339 16.8539 18.7034 19.393L18.713 19.412ZM20.1247 17.8314C18.4154 15.0035 15.3409 13.25 12 13.25C8.65912 13.25 5.5846 15.0035 3.87533 17.8314C2.69508 16.1899 2 14.1761 2 12C2 6.47715 6.47715 2 12 2C17.5228 2 22 6.47715 22 12C22 14.1761 21.3049 16.1899 20.1247 17.8314ZM21.1343 19.7826C22.9213 17.6873 24 14.9696 24 12C24 5.37258 18.6274 0 12 0C5.37258 0 0 5.37258 0 12C0 14.9696 1.0787 17.6873 2.86565 19.7826L2.85557 19.8028L2.90344 19.8267C5.10408 22.3821 8.3631 24 12 24C15.6369 24 18.8959 22.3821 21.0966 19.8267L21.1444 19.8028L21.1343 19.7826ZM12 10C12.9665 10 13.75 9.2165 13.75 8.25C13.75 7.2835 12.9665 6.5 12 6.5C11.0335 6.5 10.25 7.2835 10.25 8.25C10.25 9.2165 11.0335 10 12 10ZM12 12C14.0711 12 15.75 10.3211 15.75 8.25C15.75 6.17893 14.0711 4.5 12 4.5C9.92893 4.5 8.25 6.17893 8.25 8.25C8.25 10.3211 9.92893 12 12 12Z" fill="currentColor"/></g></svg>