<svg data-v-fbff51d6="" xmlns="http://www.w3.org/2000/svg" aria-hidden="true" aria-labelledby="icon-ic-bars-24" focusable="false" viewBox="0 0 24 24" class="h-icon--no-custom-width h-icon"><!----><g data-v-fbff51d6=""><path data-v-fbff51d6="" fill-rule="evenodd" clip-rule="evenodd" d="M3.87504 4.87505C3.87504 4.32277 4.32275 3.87505 4.87504 3.87505L19.125 3.87505C19.6773 3.87505 20.125 4.32277 20.125 4.87505C20.125 5.42734 19.6773 5.87505 19.125 5.87505L4.87504 5.87505C4.32275 5.87505 3.87504 5.42734 3.87504 4.87505ZM3.87501 12C3.87501 11.4477 4.32273 11 4.87501 11L19.125 11C19.6773 11 20.125 11.4477 20.125 12C20.125 12.5522 19.6773 13 19.125 13L4.87501 13C4.32273 13 3.87501 12.5522 3.87501 12ZM4.875 18.125C4.32272 18.125 3.875 18.5727 3.875 19.125C3.875 19.6773 4.32272 20.125 4.875 20.125L19.125 20.125C19.6773 20.125 20.125 19.6773 20.125 19.125C20.125 18.5727 19.6773 18.125 19.125 18.125L4.875 18.125Z"/></g></svg>