<svg data-v-fbff51d6="" xmlns="http://www.w3.org/2000/svg" aria-hidden="true" aria-labelledby="icon-home-16" focusable="false" viewBox="0 0 16 16" class="h-icon--default h-icon"><!----><g data-v-fbff51d6=""><path data-v-fbff51d6="" fill-rule="evenodd" clip-rule="evenodd" d="M13.5 6.46729L8 2.53872L2.5 6.46729V13.5L5.5 13.5V10.7C5.5 9.76112 6.26112 9 7.2 9H8.8C9.73888 9 10.5 9.76111 10.5 10.7V13.5H13.5V6.46729ZM7 15L2 15C1.44771 15 1 14.5523 1 14V6.20998C1 5.88703 1.15597 5.58396 1.41876 5.39625L7.41876 1.11054C7.76646 0.862182 8.23354 0.862182 8.58124 1.11054L14.5812 5.39625C14.844 5.58396 15 5.88703 15 6.20998V14C15 14.5523 14.5523 15 14 15H9V10.7C9 10.5895 8.91046 10.5 8.8 10.5H7.2C7.08954 10.5 7 10.5895 7 10.7V15Z"/></g></svg>