<svg data-v-fbff51d6="" xmlns="http://www.w3.org/2000/svg" aria-hidden="true" aria-labelledby="icon-billing-16" focusable="false" viewBox="0 0 16 16" class="h-icon--default h-icon"><!----><g data-v-fbff51d6=""><path data-v-fbff51d6="" fill-rule="evenodd" clip-rule="evenodd" d="M1 4.5C1 3.39543 1.89543 2.5 3 2.5H13C14.1046 2.5 15 3.39543 15 4.5V11.5C15 12.6046 14.1046 13.5 13 13.5H3C1.89543 13.5 1 12.6046 1 11.5V4.5ZM3 4H13C13.2761 4 13.5 4.22386 13.5 4.5V6H2.5V4.5C2.5 4.22386 2.72386 4 3 4ZM2.5 8V11.5C2.5 11.7761 2.72386 12 3 12H13C13.2761 12 13.5 11.7761 13.5 11.5V8H2.5Z"/></g></svg>