<svg data-v-fbff51d6="" xmlns="http://www.w3.org/2000/svg" aria-hidden="true" aria-labelledby="icon-browser-window-16" focusable="false" viewBox="0 0 16 16" class="h-icon--default h-icon"><!----><g data-v-fbff51d6=""><path d="M4 4.78125C4 5.19546 3.66423 5.53125 3.25003 5.53125C2.83583 5.53125 2.50006 5.19546 2.50006 4.78125C2.50006 4.36704 2.83583 4.03125 3.25003 4.03125C3.66423 4.03125 4 4.36704 4 4.78125Z"/><path d="M6.5 4.78125C6.5 5.19546 6.16423 5.53125 5.75003 5.53125C5.33583 5.53125 5.00006 5.19546 5.00006 4.78125C5.00006 4.36704 5.33583 4.03125 5.75003 4.03125C6.16423 4.03125 6.5 4.36704 6.5 4.78125Z"/><path d="M8.25003 5.53125C8.66423 5.53125 9 5.19546 9 4.78125C9 4.36704 8.66423 4.03125 8.25003 4.03125C7.83583 4.03125 7.50006 4.36704 7.50006 4.78125C7.50006 5.19546 7.83583 5.53125 8.25003 5.53125Z"/><path fill-rule="evenodd" clip-rule="evenodd" d="M0 3.08333C0 1.93274 0.93274 1 2.08333 1H13.9167C15.0673 1 16 1.93274 16 3.08333V12.9167C16 14.0673 15.0673 15 13.9167 15H2.08333C0.93274 15 0 14.0673 0 12.9167V3.08333ZM2.08333 2.5H13.9167C14.2388 2.5 14.5 2.76117 14.5 3.08333V12.9167C14.5 13.2388 14.2388 13.5 13.9167 13.5H2.08333C1.76117 13.5 1.5 13.2388 1.5 12.9167V3.08333C1.5 2.76117 1.76117 2.5 2.08333 2.5Z"/></g></svg>